<svg xmlns="http://www.w3.org/2000/svg" xmlns:xlink="http://www.w3.org/1999/xlink" class="site-logo-svg color" viewBox="31 29 205 45" version="1.1">
  <g id="Logo" stroke="none" stroke-width="1" fill="none" fill-rule="evenodd" transform="translate(31.000000, 30.000000)">
    <path d="M57.5959 20.8784C57.0069 19.9324 55.9549 19.5114 54.8829 19.5114 53.3259 19.5114 51.7059 20.2474 51.7059 22.0144 51.7059 23.3814 52.4639 23.9914 54.8409 24.7484 57.1539 25.4854 59.2999 26.2424 59.2999 29.1664 59.2999 32.1314 56.7549 33.5204 54.0619 33.5204 52.3369 33.5204 50.4859 32.9524 49.4769 31.4584L50.9909 30.2174C51.6219 31.3114 52.8839 31.8794 54.1669 31.8794 55.6819 31.8794 57.4069 30.9954 57.4069 29.2924 57.4069 27.4624 56.1659 27.1464 53.5149 26.2634 51.4119 25.5694 49.8129 24.6434 49.8129 22.1614 49.8129 19.3004 52.2739 17.8704 54.8829 17.8704 56.5439 17.8704 57.9539 18.3334 59.0469 19.6164L57.5959 20.8784 57.5959 20.8784Z" id="Fill-1" fill="#005794"/>
    <polygon id="Fill-3" fill="#005794" points="61.697 33.1412 63.464 33.1412 63.464 18.2492 61.697 18.2492"/>
    <polygon id="Fill-5" fill="#005794" points="66.6404 18.2491 68.4074 18.2491 68.4074 24.6851 68.6594 24.6851 75.4324 18.2491 77.9774 18.2491 70.6154 25.0431 78.3354 33.1411 75.7484 33.1411 68.6594 25.5691 68.4074 25.5691 68.4074 33.1411 66.6404 33.1411"/>
    <polygon id="Fill-6" fill="#005794" points="79.3655 18.2491 81.1325 18.2491 81.1325 24.5591 89.0835 24.5591 89.0835 18.2491 90.8505 18.2491 90.8505 33.1411 89.0835 33.1411 89.0835 26.2001 81.1325 26.2001 81.1325 33.1411 79.3655 33.1411"/>
    <path d="M103.4279 22.1194C102.7759 21.3414 101.8289 20.8994 100.6089 20.8994 98.1269 20.8994 96.2979 22.9184 96.2979 25.6954 96.2979 28.4714 98.1269 30.4914 100.5039 30.4914 101.8289 30.4914 102.9019 29.9024 103.5749 28.8924L106.3099 30.9324C105.0689 32.6994 102.9649 33.5204 100.9249 33.5204 96.2759 33.5204 92.8899 30.4704 92.8899 25.6954 92.8899 20.9204 96.2759 17.8704 100.9249 17.8704 102.5869 17.8704 104.6899 18.4384 105.9519 20.0584L103.4279 22.1194Z" id="Fill-7" fill="#005794"/>
    <path d="M114.8072 30.491C117.6042 30.491 119.4342 28.472 119.4342 25.695 119.4342 22.919 117.6042 20.899 114.8072 20.899 112.0092 20.899 110.1792 22.919 110.1792 25.695 110.1792 28.472 112.0092 30.491 114.8072 30.491M114.8072 17.871C119.4552 17.871 122.8422 20.921 122.8422 25.695 122.8422 30.47 119.4552 33.52 114.8072 33.52 110.1582 33.52 106.7722 30.47 106.7722 25.695 106.7722 20.921 110.1582 17.871 114.8072 17.871" id="Fill-8" fill="#005794"/>
    <path d="M130.7086 22.5823L128.8996 27.2093 132.5386 27.2093 130.7086 22.5823ZM129.4466 18.2493L132.1596 18.2493 138.6386 33.1413 134.9366 33.1413 133.6536 29.9863 127.8686 29.9863 126.6276 33.1413 123.0106 33.1413 129.4466 18.2493Z" id="Fill-9" fill="#005794"/>
    <polygon id="Fill-10" fill="#005794" points="139.732 18.2491 143.013 18.2491 143.013 30.1121 149.092 30.1121 149.092 33.1411 139.732 33.1411"/>
    <polygon id="Fill-11" fill="#005794" points="150.332 33.1412 153.613 33.1412 153.613 18.2492 150.332 18.2492"/>
    <polygon id="Fill-12" fill="#005794" points="158.9565 21.1519 154.7075 21.1519 154.7075 18.2489 166.4865 18.2489 166.4865 21.1519 162.2375 21.1519 162.2375 33.1409 158.9565 33.1409"/>
    <polygon id="Fill-13" fill="#005794" points="167.58 33.1412 170.861 33.1412 170.861 18.2492 167.58 18.2492"/>
    <path d="M180.5579 30.491C183.3549 30.491 185.1849 28.472 185.1849 25.695 185.1849 22.919 183.3549 20.899 180.5579 20.899 177.7599 20.899 175.9299 22.919 175.9299 25.695 175.9299 28.472 177.7599 30.491 180.5579 30.491M180.5579 17.871C185.2059 17.871 188.5929 20.921 188.5929 25.695 188.5929 30.47 185.2059 33.52 180.5579 33.52 175.9089 33.52 172.5229 30.47 172.5229 25.695 172.5229 20.921 175.9089 17.871 180.5579 17.871" id="Fill-14" fill="#005794"/>
    <polygon id="Fill-15" fill="#005794" points="190.296 18.2491 194.755 18.2491 201.086 28.5981 201.129 28.5981 201.129 18.2491 204.41 18.2491 204.41 33.1411 200.119 33.1411 193.619 22.5401 193.577 22.5401 193.577 33.1411 190.296 33.1411"/>
    <polygon id="Fill-34" fill="#005794" points="52.8847 14.6264 52.0887 14.6264 52.0887 7.5304 49.4697 7.5304 49.4697 6.8004 55.5047 6.8004 55.5047 7.5304 52.8847 7.5304"/>
    <polygon id="Fill-35" fill="#005794" points="56.1677 6.8008 56.9637 6.8008 56.9637 10.1938 61.2297 10.1938 61.2297 6.8008 62.0257 6.8008 62.0257 14.6268 61.2297 14.6268 61.2297 10.9238 56.9637 10.9238 56.9637 14.6268 56.1677 14.6268"/>
    <polygon id="Fill-36" fill="#005794" points="64.3916 13.897 68.5806 13.897 68.5806 14.626 63.5956 14.626 63.5956 6.801 68.4486 6.801 68.4486 7.53 64.3916 7.53 64.3916 10.194 68.1826 10.194 68.1826 10.924 64.3916 10.924"/>
    <path d="M8.6344 16.1917C8.6824 16.2167 8.7264 16.2277 8.7954 16.2297L8.8544 16.1517C8.7804 16.1637 8.7074 16.1757 8.6344 16.1887L8.6344 16.1917M21.7694 0.6127C10.1024 0.6127 0.6124 10.1027 0.6124 21.7687 0.6124 33.4337 10.1024 42.9247 21.7694 42.9247 33.4344 42.9247 42.9254 33.4337 42.9254 21.7687 42.9254 10.1027 33.4344 0.6127 21.7694 0.6127M21.7694 43.5367C18.8304 43.5367 15.9794 42.9607 13.2944 41.8257 10.7034 40.7297 8.3754 39.1597 6.3764 37.1607 4.3764 35.1617 2.8074 32.8337 1.7114 30.2417 0.5754 27.5577 0.000399999997 24.7067 0.000399999997 21.7687 0.000399999997 18.8297 0.5754 15.9787 1.7114 13.2947 2.8074 10.7027 4.3764 8.3747 6.3764 6.3757 8.3754 4.3767 10.7034 2.8077 13.2944 1.7107 15.9794 0.5757 18.8304-0.0003 21.7694-0.0003 24.7074-0.0003 27.5584 0.5757 30.2424 1.7107 32.8344 2.8077 35.1624 4.3767 37.1614 6.3757 39.1604 8.3747 40.7294 10.7027 41.8264 13.2947 42.9614 15.9787 43.5374 18.8297 43.5374 21.7687 43.5374 24.7067 42.9614 27.5577 41.8264 30.2417 40.7294 32.8337 39.1604 35.1617 37.1614 37.1607 35.1624 39.1597 32.8344 40.7297 30.2424 41.8257 27.5584 42.9607 24.7074 43.5367 21.7694 43.5367" id="Fill-37" fill="#005794"/>
    <path d="M5.2497 19.9998C5.7227 19.4138 5.2177 20.0518 6.0147 22.0008 7.4987 16.3518 11.9367 11.8888 17.5697 10.3648 17.3167 8.1228 17.0937 6.6918 17.0937 6.6918L21.5177 2.0038C10.9787 2.1918 2.4897 10.7898 2.4897 21.3748 2.4897 22.9078 2.6737 24.3978 3.0097 25.8278 2.9897 22.1668 5.2497 19.9998 5.2497 19.9998" id="Fill-38" fill="#005794"/>
    <path d="M26.1026 10.3644C31.7696 11.8974 36.2266 16.4034 37.6846 22.1004 38.5386 20.0734 38.0096 19.4044 38.4906 19.9994 38.4906 19.9994 40.7476 22.1624 40.7326 25.8194 41.0676 24.3914 41.2506 22.9044 41.2506 21.3744 41.2506 10.7664 32.7246 2.1534 22.1526 2.0014L26.5786 6.6924C26.5786 6.6924 26.3566 8.1224 26.1026 10.3644" id="Fill-39" fill="#005794"/>
    <path d="M28.7542 32.1966C32.0232 29.5536 34.1542 27.3506 35.5482 25.5696 35.2992 19.6446 31.2782 14.6806 25.8302 13.0206 25.2832 18.9676 24.9052 27.7136 26.6522 32.9446 26.6522 32.9446 23.3672 34.9096 23.2872 35.4306 23.2582 35.6226 23.2392 37.0856 23.2272 38.8586 24.0752 36.8336 25.7792 34.6016 28.7542 32.1966" id="Fill-40" fill="#EF5E31"/>
    <path d="M20.4437 38.7059C20.4317 37.0039 20.4137 35.6169 20.3847 35.4309 20.3057 34.9099 17.0207 32.9439 17.0207 32.9439 18.7667 27.7139 18.3897 18.9689 17.8427 13.0209 12.4187 14.6739 8.4087 19.5989 8.1257 25.4869 9.5197 27.2819 11.6667 29.5129 14.9857 32.1969 17.8857 34.5419 19.5757 36.7219 20.4437 38.7059" id="Fill-41" fill="#EF5E31"/>
  </g>
</svg>
